<?xml version="1.0" encoding="UTF-8"?>
<svg id="rawgraphs-icons" xmlns="http://www.w3.org/2000/svg" width="56" height="56" viewBox="0 0 56 56">
  <circle cx="9.104397" cy="36.842521" r="2" style="fill: #df88ff; stroke-width: 0px;"/>
  <circle cx="14.140707" cy="36.851634" r="2" style="fill: #df88ff; stroke-width: 0px;"/>
  <circle cx="19.214317" cy="36.879159" r="2" style="fill: #df88ff; stroke-width: 0px;"/>
  <circle cx="10.29547" cy="31.93591" r="2" style="fill: #df88ff; stroke-width: 0px;"/>
  <circle cx="15.707956" cy="32.130367" r="2" style="fill: #df88ff; stroke-width: 0px;"/>
  <circle cx="12.736822" cy="27.516259" r="2" style="fill: #df88ff; stroke-width: 0px;"/>
  <circle cx="21.4735" cy="32.634372" r="2" style="fill: #df88ff; stroke-width: 0px;"/>
  <circle cx="18.827176" cy="28.255178" r="2" style="fill: #df88ff; stroke-width: 0px;"/>
  <circle cx="16.256047" cy="23.895685" r="2" style="fill: #df88ff; stroke-width: 0px;"/>
  <circle cx="20.604618" cy="21.329866" r="2" style="fill: #df88ff; stroke-width: 0px;"/>
  <circle cx="23.104542" cy="25.715341" r="2" style="fill: #df88ff; stroke-width: 0px;"/>
  <circle cx="25.595726" cy="30.158617" r="2" style="fill: #df88ff; stroke-width: 0px;"/>
  <circle cx="25.475445" cy="20" r="2" style="fill: #df88ff; stroke-width: 0px;"/>
  <circle cx="28" cy="24.831533" r="2" style="fill: #df88ff; stroke-width: 0px;"/>
  <circle cx="30.524555" cy="20" r="2" style="fill: #df88ff; stroke-width: 0px;"/>
  <circle cx="30.404274" cy="30.158617" r="2" style="fill: #ad00ff; stroke-width: 0px;"/>
  <circle cx="32.895458" cy="25.715341" r="2" style="fill: #ad00ff; stroke-width: 0px;"/>
  <circle cx="35.395382" cy="21.329866" r="2" style="fill: #ad00ff; stroke-width: 0px;"/>
  <circle cx="39.743954" cy="23.895685" r="2" style="fill: #ad00ff; stroke-width: 0px;"/>
  <circle cx="37.172825" cy="28.255178" r="2" style="fill: #ad00ff; stroke-width: 0px;"/>
  <circle cx="34.526501" cy="32.634372" r="2" style="fill: #ad00ff; stroke-width: 0px;"/>
  <circle cx="43.263176" cy="27.516259" r="2" style="fill: #ad00ff; stroke-width: 0px;"/>
  <circle cx="40.292046" cy="32.130367" r="2" style="fill: #ad00ff; stroke-width: 0px;"/>
  <circle cx="45.704529" cy="31.93591" r="2" style="fill: #ad00ff; stroke-width: 0px;"/>
  <circle cx="36.785683" cy="36.879159" r="2" style="fill: #ad00ff; stroke-width: 0px;"/>
  <circle cx="41.859291" cy="36.851634" r="2" style="fill: #ad00ff; stroke-width: 0px;"/>
  <circle cx="46.895603" cy="36.842521" r="2" style="fill: #ad00ff; stroke-width: 0px;"/>
</svg>