<?xml version="1.0" encoding="UTF-8"?>
<svg id="Layer_1" data-name="Layer 1" xmlns="http://www.w3.org/2000/svg" width="320" height="160" viewBox="0 0 320 160">
  <circle cx="4.051263" cy="155.996407" r="4" style="fill: #9e0142; stroke-width: 0px;"/>
  <circle cx="13.054398" cy="155.996574" r="4" style="fill: #9e0142; stroke-width: 0px;"/>
  <circle cx="22.05794" cy="155.996773" r="4" style="fill: #9e0142; stroke-width: 0px;"/>
  <circle cx="31.061979" cy="155.997017" r="4.000001" style="fill: #9e0142; stroke-width: 0px;"/>
  <circle cx="40.066619" cy="155.997322" r="4" style="fill: #9e0142; stroke-width: 0px;"/>
  <circle cx="49.072009" cy="155.997688" r="4" style="fill: #9e0142; stroke-width: 0px;"/>
  <circle cx="58.078349" cy="155.998161" r="4" style="fill: #9e0142; stroke-width: 0px;"/>
  <circle cx="67.085906" cy="155.998787" r="4" style="fill: #9e0142; stroke-width: 0px;"/>
  <circle cx="76.095084" cy="155.999626" r="4" style="fill: #9e0142; stroke-width: 0px;"/>
  <circle cx="85.106444" cy="156.000771" r="4" style="fill: #9e0142; stroke-width: 0px;"/>
  <circle cx="94.120887" cy="156.002419" r="4" style="fill: #9e0142; stroke-width: 0px;"/>
  <circle cx="103.139838" cy="156.004906" r="4" style="fill: #9e0142; stroke-width: 0px;"/>
  <circle cx="4.63162" cy="145.971382" r="4" style="fill: #9e0142; stroke-width: 0px;"/>
  <circle cx="13.674163" cy="145.932808" r="4" style="fill: #9e0142; stroke-width: 0px;"/>
  <circle cx="22.722855" cy="145.888939" r="4" style="fill: #9e0142; stroke-width: 0px;"/>
  <circle cx="31.779129" cy="145.838585" r="3.999999" style="fill: #9e0142; stroke-width: 0px;"/>
  <circle cx="40.844912" cy="145.78019" r="4" style="fill: #9e0142; stroke-width: 0px;"/>
  <circle cx="49.884169" cy="146.012886" r="4" style="fill: #9e0142; stroke-width: 0px;"/>
  <circle cx="58.969828" cy="145.962868" r="4" style="fill: #9e0142; stroke-width: 0px;"/>
  <circle cx="68.073874" cy="145.903008" r="4" style="fill: #9e0142; stroke-width: 0px;"/>
  <circle cx="5.855757" cy="136.004463" r="4" style="fill: #9e0142; stroke-width: 0px;"/>
  <circle cx="14.982344" cy="135.935219" r="4" style="fill: #9e0142; stroke-width: 0px;"/>
  <circle cx="77.202941" cy="145.830132" r="4" style="fill: #9e0142; stroke-width: 0px;"/>
  <circle cx="24.127427" cy="135.857109" r="4" style="fill: #9e0142; stroke-width: 0px;"/>
  <circle cx="33.295363" cy="135.768379" r="4" style="fill: #9e0142; stroke-width: 0px;"/>
  <circle cx="86.367293" cy="145.739464" r="4" style="fill: #9e0142; stroke-width: 0px;"/>
  <circle cx="42.492007" cy="135.666725" r="4" style="fill: #9e0142; stroke-width: 0px;"/>
  <circle cx="95.471488" cy="146.136162" r="4" style="fill: #9e0142; stroke-width: 0px;"/>
  <circle cx="51.593234" cy="136.14196" r="4" style="fill: #9e0142; stroke-width: 0px;"/>
  <circle cx="7.718602" cy="126.136955" r="4" style="fill: #9e0142; stroke-width: 0px;"/>
  <circle cx="16.972787" cy="126.050814" r="4.000003" style="fill: #9e0142; stroke-width: 0px;"/>
  <circle cx="60.846968" cy="136.064461" r="4" style="fill: #9e0142; stroke-width: 0px;"/>
  <circle cx="104.724616" cy="146.079948" r="4" style="fill: #9e0142; stroke-width: 0px;"/>
  <circle cx="26.264088" cy="125.955345" r="4" style="fill: #9e0142; stroke-width: 0px;"/>
  <circle cx="70.155532" cy="135.974892" r="4" style="fill: #9e0142; stroke-width: 0px;"/>
  <circle cx="35.601233" cy="125.849159" r="4" style="fill: #9e0142; stroke-width: 0px;"/>
  <circle cx="10.212435" cy="116.409737" r="4" style="fill: #9e0142; stroke-width: 0px;"/>
  <circle cx="44.99589" cy="125.730635" r="3.999997" style="fill: #9e0142; stroke-width: 0px;"/>
  <circle cx="79.538749" cy="135.870705" r="4" style="fill: #9e0142; stroke-width: 0px;"/>
  <circle cx="19.636126" cy="116.326096" r="4" style="fill: #9e0142; stroke-width: 0px;"/>
  <circle cx="54.185286" cy="126.465334" r="4.000003" style="fill: #9e0142; stroke-width: 0px;"/>
  <circle cx="29.12133" cy="116.236984" r="3.999999" style="fill: #9e0142; stroke-width: 0px;"/>
  <circle cx="89.027274" cy="135.749031" r="4" style="fill: #9e0142; stroke-width: 0px;"/>
  <circle cx="63.691451" cy="126.399529" r="4" style="fill: #9e0142; stroke-width: 0px;"/>
  <circle cx="38.682364" cy="116.142731" r="4" style="fill: #9e0142; stroke-width: 0px;"/>
  <circle cx="13.326925" cy="106.863113" r="4" style="fill: #9e0142; stroke-width: 0px;"/>
  <circle cx="98.291121" cy="136.585411" r="4" style="fill: #9e0142; stroke-width: 0px;"/>
  <circle cx="22.959832" cy="106.806839" r="4" style="fill: #9e0142; stroke-width: 0px;"/>
  <circle cx="73.306098" cy="126.332558" r="4" style="fill: #9e0142; stroke-width: 0px;"/>
  <circle cx="48.338309" cy="116.04438" r="4" style="fill: #9e0142; stroke-width: 0px;"/>
  <circle cx="32.683753" cy="106.754395" r="4" style="fill: #9e0142; stroke-width: 0px;"/>
  <circle cx="57.639209" cy="117.061806" r="4" style="fill: #9e0142; stroke-width: 0px;"/>
  <circle cx="17.049165" cy="97.536652" r="4" style="fill: #9e0142; stroke-width: 0px;"/>
  <circle cx="83.067855" cy="126.269081" r="4" style="fill: #9e0142; stroke-width: 0px;"/>
  <circle cx="108.027991" cy="136.587624" r="4" style="fill: #9e0142; stroke-width: 0px;"/>
  <circle cx="42.519557" cy="106.709602" r="4" style="fill: #9e0142; stroke-width: 0px;"/>
  <circle cx="67.475524" cy="117.062355" r="4" style="fill: #9e0142; stroke-width: 0px;"/>
  <circle cx="26.928267" cy="97.537811" r="4" style="fill: #9e0142; stroke-width: 0px;"/>
  <circle cx="52.494891" cy="106.678589" r="4" style="fill: #9e0142; stroke-width: 0px;"/>
  <circle cx="93.035857" cy="126.219322" r="4" style="fill: #9e0142; stroke-width: 0px;"/>
  <circle cx="36.932166" cy="97.55867" r="4" style="fill: #f88e53; stroke-width: 0px;"/>
  <circle cx="21.363732" cy="88.468987" r="4" style="fill: #f88e53; stroke-width: 0px;"/>
  <circle cx="77.488105" cy="117.090714" r="4" style="fill: #f88e53; stroke-width: 0px;"/>
  <circle cx="61.926874" cy="108.007973" r="3.999999" style="fill: #f88e53; stroke-width: 0px;"/>
  <circle cx="47.088897" cy="97.608551" r="4" style="fill: #f88e53; stroke-width: 0px;"/>
  <circle cx="31.522763" cy="88.562622" r="4.000001" style="fill: #f88e53; stroke-width: 0px;"/>
  <circle cx="102.515601" cy="127.567589" r="4" style="fill: #f88e53; stroke-width: 0px;"/>
  <circle cx="72.162268" cy="108.144035" r="4" style="fill: #f88e53; stroke-width: 0px;"/>
  <circle cx="87.737929" cy="117.167625" r="4" style="fill: #f88e53; stroke-width: 0px;"/>
  <circle cx="26.252749" cy="79.697701" r="4" style="fill: #f88e53; stroke-width: 0px;"/>
  <circle cx="41.843676" cy="88.699356" r="4" style="fill: #f88e53; stroke-width: 0px;"/>
  <circle cx="57.435328" cy="97.701538" r="4" style="fill: #f88e53; stroke-width: 0px;"/>
  <circle cx="36.721701" cy="79.923508" r="4" style="fill: #f88e53; stroke-width: 0px;"/>
  <circle cx="67.013358" cy="99.377586" r="4" style="fill: #f88e53; stroke-width: 0px;"/>
  <circle cx="52.361907" cy="88.896294" r="4" style="fill: #f88e53; stroke-width: 0px;"/>
  <circle cx="82.651786" cy="108.359329" r="4" style="fill: #f88e53; stroke-width: 0px;"/>
  <circle cx="112.947257" cy="127.823082" r="4" style="fill: #f88e53; stroke-width: 0px;"/>
  <circle cx="31.695958" cy="71.259132" r="4.000001" style="fill: #f88e53; stroke-width: 0px;"/>
  <circle cx="98.31687" cy="117.331406" r="4" style="fill: #f88e53; stroke-width: 0px;"/>
  <circle cx="47.391822" cy="80.22419" r="4" style="fill: #f88e53; stroke-width: 0px;"/>
  <circle cx="63.1236" cy="89.178696" r="4.000001" style="fill: #f88e53; stroke-width: 0px;"/>
  <circle cx="77.70597" cy="99.731583" r="4" style="fill: #f88e53; stroke-width: 0px;"/>
  <circle cx="42.500624" cy="71.661095" r="4" style="fill: #f88e53; stroke-width: 0px;"/>
  <circle cx="93.479705" cy="108.70134" r="4" style="fill: #f88e53; stroke-width: 0px;"/>
  <circle cx="58.305724" cy="80.627136" r="4" style="fill: #f88e53; stroke-width: 0px;"/>
  <circle cx="108.048751" cy="119.28801" r="4" style="fill: #f88e53; stroke-width: 0px;"/>
  <circle cx="72.857222" cy="91.240929" r="4" style="fill: #f88e53; stroke-width: 0px;"/>
  <circle cx="37.670802" cy="63.188248" r="4" style="fill: #f88e53; stroke-width: 0px;"/>
  <circle cx="53.54671" cy="72.178833" r="4" style="fill: #f88e53; stroke-width: 0px;"/>
  <circle cx="88.735709" cy="100.242271" r="4" style="fill: #f88e53; stroke-width: 0px;"/>
  <circle cx="48.832343" cy="63.81427" r="4" style="fill: #fee89a; stroke-width: 0px;"/>
  <circle cx="69.518233" cy="81.172203" r="4" style="fill: #fee89a; stroke-width: 0px;"/>
  <circle cx="84.052527" cy="91.907059" r="4" style="fill: #fee89a; stroke-width: 0px;"/>
  <circle cx="44.152526" cy="55.518486" r="4" style="fill: #fee89a; stroke-width: 0px;"/>
  <circle cx="64.883307" cy="72.8526" r="4" style="fill: #fee89a; stroke-width: 0px;"/>
  <circle cx="104.769957" cy="109.254166" r="4" style="fill: #fee89a; stroke-width: 0px;"/>
  <circle cx="79.41088" cy="83.664284" r="4" style="fill: #fee89a; stroke-width: 0px;"/>
  <circle cx="60.275171" cy="64.606636" r="3.999999" style="fill: #fee89a; stroke-width: 0px;"/>
  <circle cx="119.329459" cy="120.058815" r="4" style="fill: #fee89a; stroke-width: 0px;"/>
  <circle cx="100.208022" cy="100.995781" r="4" style="fill: #fee89a; stroke-width: 0px;"/>
  <circle cx="55.687072" cy="56.419945" r="4" style="fill: #fee89a; stroke-width: 0px;"/>
  <circle cx="51.114276" cy="48.281631" r="4" style="fill: #fee89a; stroke-width: 0px;"/>
  <circle cx="76.572592" cy="73.740433" r="4" style="fill: #fee89a; stroke-width: 0px;"/>
  <circle cx="95.667495" cy="92.836121" r="4" style="fill: #fee89a; stroke-width: 0px;"/>
  <circle cx="114.764601" cy="111.93515" r="4" style="fill: #fee89a; stroke-width: 0px;"/>
  <circle cx="72.053672" cy="65.621147" r="4" style="fill: #fee89a; stroke-width: 0px;"/>
  <circle cx="91.140044" cy="84.746803" r="4" style="fill: #fee89a; stroke-width: 0px;"/>
  <circle cx="67.540961" cy="57.548405" r="4" style="fill: #fee89a; stroke-width: 0px;"/>
  <circle cx="86.62094" cy="76.709366" r="4" style="fill: #fee89a; stroke-width: 0px;"/>
  <circle cx="63.032556" cy="49.512905" r="3.999999" style="fill: #fee89a; stroke-width: 0px;"/>
  <circle cx="58.527198" cy="41.507671" r="4" style="fill: #fee89a; stroke-width: 0px;"/>
  <circle cx="112.272513" cy="102.14109" r="4" style="fill: #fee89a; stroke-width: 0px;"/>
  <circle cx="84.235251" cy="66.937576" r="4" style="fill: #fee89a; stroke-width: 0px;"/>
  <circle cx="79.772116" cy="58.977837" r="4" style="fill: #fee89a; stroke-width: 0px;"/>
  <circle cx="107.823104" cy="94.16523" r="4" style="fill: #fee89a; stroke-width: 0px;"/>
  <circle cx="75.304923" cy="51.042156" r="4" style="fill: #fee89a; stroke-width: 0px;"/>
  <circle cx="103.364676" cy="86.228981" r="4" style="fill: #fee89a; stroke-width: 0px;"/>
  <circle cx="70.834243" cy="43.125648" r="4" style="fill: #fee89a; stroke-width: 0px;"/>
  <circle cx="66.360579" cy="35.224674" r="4" style="fill: #fee89a; stroke-width: 0px;"/>
  <circle cx="98.899352" cy="78.320679" r="4" style="fill: #fee89a; stroke-width: 0px;"/>
  <circle cx="94.428687" cy="70.432816" r="4" style="fill: #fee89a; stroke-width: 0px;"/>
  <circle cx="126.976172" cy="113.536224" r="4" style="fill: #fee89a; stroke-width: 0px;"/>
  <circle cx="122.510268" cy="105.676407" r="4" style="fill: #fee89a; stroke-width: 0px;"/>
  <circle cx="92.450339" cy="60.813228" r="3.999999" style="fill: #fee89a; stroke-width: 0px;"/>
  <circle cx="87.990554" cy="52.964077" r="4" style="fill: #fee89a; stroke-width: 0px;"/>
  <circle cx="83.525229" cy="45.122955" r="4" style="fill: #fee89a; stroke-width: 0px;"/>
  <circle cx="79.055426" cy="37.288227" r="4" style="fill: #fee89a; stroke-width: 0px;"/>
  <circle cx="74.581969" cy="29.458668" r="4" style="fill: #fee89a; stroke-width: 0px;"/>
  <circle cx="120.68196" cy="96.127327" r="4" style="fill: #fee89a; stroke-width: 0px;"/>
  <circle cx="116.212012" cy="88.310982" r="4" style="fill: #fee89a; stroke-width: 0px;"/>
  <circle cx="111.735671" cy="80.499474" r="4" style="fill: #fee89a; stroke-width: 0px;"/>
  <circle cx="107.254767" cy="72.691376" r="4" style="fill: #fee89a; stroke-width: 0px;"/>
  <circle cx="102.770514" cy="64.885765" r="4" style="fill: #fee89a; stroke-width: 0px;"/>
  <circle cx="83.157286" cy="24.233551" r="4" style="fill: #fee89a; stroke-width: 0px;"/>
  <circle cx="87.657431" cy="32.028103" r="4" style="fill: #fee89a; stroke-width: 0px;"/>
  <circle cx="92.157584" cy="39.822693" r="4" style="fill: #fee89a; stroke-width: 0px;"/>
  <circle cx="96.657759" cy="47.61734" r="4" style="fill: #fee89a; stroke-width: 0px;"/>
  <circle cx="101.157958" cy="55.412048" r="4" style="fill: #fee89a; stroke-width: 0px;"/>
  <circle cx="131.109412" cy="100.654266" r="4" style="fill: #fee89a; stroke-width: 0px;"/>
  <circle cx="111.578482" cy="60.113383" r="3.999999" style="fill: #fee89a; stroke-width: 0px;"/>
  <circle cx="92.051009" cy="19.570972" r="4" style="fill: #fee89a; stroke-width: 0px;"/>
  <circle cx="96.599776" cy="27.370018" r="4" style="fill: #fee89a; stroke-width: 0px;"/>
  <circle cx="116.12477" cy="67.913811" r="4" style="fill: #fee89a; stroke-width: 0px;"/>
  <circle cx="135.649649" cy="108.458115" r="4" style="fill: #fee89a; stroke-width: 0px;"/>
  <circle cx="101.155478" cy="35.16993" r="4" style="fill: #fee89a; stroke-width: 0px;"/>
  <circle cx="120.680884" cy="75.715759" r="4" style="fill: #fee89a; stroke-width: 0px;"/>
  <circle cx="105.719718" cy="42.970951" r="4" style="fill: #fee89a; stroke-width: 0px;"/>
  <circle cx="110.294608" cy="50.773422" r="4" style="fill: #fee89a; stroke-width: 0px;"/>
  <circle cx="125.250336" cy="83.519867" r="4.000003" style="fill: #fee89a; stroke-width: 0px;"/>
  <circle cx="129.838523" cy="91.327164" r="4" style="fill: #fee89a; stroke-width: 0px;"/>
  <circle cx="101.226287" cy="15.49025" r="4" style="fill: #fee89a; stroke-width: 0px;"/>
  <circle cx="105.840407" cy="23.335892" r="4" style="fill: #fee89a; stroke-width: 0px;"/>
  <circle cx="110.470435" cy="31.189732" r="4" style="fill: #fee89a; stroke-width: 0px;"/>
  <circle cx="120.780852" cy="56.154552" r="4" style="fill: #fee89a; stroke-width: 0px;"/>
  <circle cx="115.119956" cy="39.053864" r="4" style="fill: #fee89a; stroke-width: 0px;"/>
  <circle cx="125.422812" cy="64.034592" r="4" style="fill: #fee89a; stroke-width: 0px;"/>
  <circle cx="119.793677" cy="46.931168" r="4" style="fill: #fee89a; stroke-width: 0px;"/>
  <circle cx="130.093894" cy="71.934753" r="4" style="fill: #fee89a; stroke-width: 0px;"/>
  <circle cx="110.645095" cy="12.008294" r="4" style="fill: #fee89a; stroke-width: 0px;"/>
  <circle cx="115.335837" cy="19.944704" r="4" style="fill: #fee89a; stroke-width: 0px;"/>
  <circle cx="134.804007" cy="79.862938" r="4" style="fill: #fee89a; stroke-width: 0px;"/>
  <circle cx="140.366278" cy="96.983055" r="4" style="fill: #fee89a; stroke-width: 0px;"/>
  <circle cx="120.05226" cy="27.903543" r="4" style="fill: #fee89a; stroke-width: 0px;"/>
  <circle cx="124.799887" cy="35.890495" r="4" style="fill: #fee89a; stroke-width: 0px;"/>
  <circle cx="139.568198" cy="87.831802" r="4" style="fill: #fee89a; stroke-width: 0px;"/>
  <circle cx="130.302665" cy="53.041515" r="4" style="fill: #fee89a; stroke-width: 0px;"/>
  <circle cx="145.080222" cy="104.982368" r="4" style="fill: #fee89a; stroke-width: 0px;"/>
  <circle cx="120.268409" cy="9.139533" r="4" style="fill: #fee89a; stroke-width: 0px;"/>
  <circle cx="129.585913" cy="43.9133" r="4" style="fill: #fee89a; stroke-width: 0px;"/>
  <circle cx="135.058203" cy="61.091576" r="4" style="fill: #fee89a; stroke-width: 0px;"/>
  <circle cx="125.041394" cy="17.212408" r="3.999997" style="fill: #fee89a; stroke-width: 0px;"/>
  <circle cx="129.849326" cy="25.329077" r="4" style="fill: #fee89a; stroke-width: 0px;"/>
  <circle cx="139.862708" cy="69.201431" r="4" style="fill: #fee89a; stroke-width: 0px;"/>
  <circle cx="134.699195" cy="33.500553" r="4" style="fill: #fee89a; stroke-width: 0px;"/>
  <circle cx="130.056357" cy="6.895853" r="4" style="fill: #fee89a; stroke-width: 0px;"/>
  <circle cx="144.731375" cy="77.394432" r="4" style="fill: #fee89a; stroke-width: 0px;"/>
  <circle cx="140.066367" cy="50.799625" r="4" style="fill: #fee89a; stroke-width: 0px;"/>
  <circle cx="134.911429" cy="15.151859" r="4" style="fill: #fee89a; stroke-width: 0px;"/>
  <circle cx="139.59989" cy="41.741825" r="4" style="fill: #fee89a; stroke-width: 0px;"/>
  <circle cx="150.070105" cy="94.746361" r="4" style="fill: #fee89a; stroke-width: 0px;"/>
  <circle cx="144.936927" cy="59.113464" r="4" style="fill: #fee89a; stroke-width: 0px;"/>
  <circle cx="139.808844" cy="23.480198" r="4" style="fill: #fee89a; stroke-width: 0px;"/>
  <circle cx="149.686118" cy="85.707657" r="4" style="fill: #fee89a; stroke-width: 0px;"/>
  <circle cx="139.968375" cy="5.28655" r="4" style="fill: #fee89a; stroke-width: 0px;"/>
  <circle cx="144.756171" cy="31.898937" r="4" style="fill: #fee89a; stroke-width: 0px;"/>
  <circle cx="149.8711" cy="67.548325" r="4" style="fill: #fee89a; stroke-width: 0px;"/>
  <circle cx="144.899482" cy="13.772749" r="4" style="fill: #fee89a; stroke-width: 0px;"/>
  <circle cx="149.992423" cy="49.447147" r="4" style="fill: #fee89a; stroke-width: 0px;"/>
  <circle cx="154.974662" cy="103.217056" r="4" style="fill: #fee89a; stroke-width: 0px;"/>
  <circle cx="149.762625" cy="40.432575" r="4" style="fill: #fee89a; stroke-width: 0px;"/>
  <circle cx="149.877158" cy="22.366871" r="4" style="fill: #89cfa5; stroke-width: 0px;"/>
  <circle cx="149.963401" cy="4.318293" r="4" style="fill: #89cfa5; stroke-width: 0px;"/>
  <circle cx="154.885169" cy="76.150963" r="4" style="fill: #89cfa5; stroke-width: 0px;"/>
  <circle cx="154.962592" cy="58.11956" r="4" style="fill: #89cfa5; stroke-width: 0px;"/>
  <circle cx="154.908149" cy="31.095625" r="4.000001" style="fill: #89cfa5; stroke-width: 0px;"/>
  <circle cx="154.958594" cy="13.081568" r="4" style="fill: #89cfa5; stroke-width: 0px;"/>
  <circle cx="160.000006" cy="48.995094" r="4" style="fill: #89cfa5; stroke-width: 0px;"/>
  <circle cx="160.000006" cy="66.995094" r="4" style="fill: #89cfa5; stroke-width: 0px;"/>
  <circle cx="160.000006" cy="21.995094" r="4" style="fill: #89cfa5; stroke-width: 0px;"/>
  <circle cx="160.000006" cy="39.995094" r="4" style="fill: #89cfa5; stroke-width: 0px;"/>
  <circle cx="160.000006" cy="84.995094" r="4" style="fill: #89cfa5; stroke-width: 0px;"/>
  <circle cx="160.000006" cy="3.995094" r="4" style="fill: #89cfa5; stroke-width: 0px;"/>
  <circle cx="160.000006" cy="93.995094" r="4" style="fill: #89cfa5; stroke-width: 0px;"/>
  <circle cx="165.041419" cy="13.081568" r="4" style="fill: #89cfa5; stroke-width: 0px;"/>
  <circle cx="165.091864" cy="31.095625" r="4.000001" style="fill: #89cfa5; stroke-width: 0px;"/>
  <circle cx="165.037421" cy="58.11956" r="4" style="fill: #89cfa5; stroke-width: 0px;"/>
  <circle cx="165.114844" cy="76.150963" r="4" style="fill: #89cfa5; stroke-width: 0px;"/>
  <circle cx="170.036612" cy="4.318293" r="4" style="fill: #89cfa5; stroke-width: 0px;"/>
  <circle cx="170.122855" cy="22.366871" r="4" style="fill: #89cfa5; stroke-width: 0px;"/>
  <circle cx="170.237387" cy="40.432575" r="4" style="fill: #89cfa5; stroke-width: 0px;"/>
  <circle cx="165.025351" cy="103.217056" r="4" style="fill: #89cfa5; stroke-width: 0px;"/>
  <circle cx="170.00759" cy="49.447147" r="4" style="fill: #89cfa5; stroke-width: 0px;"/>
  <circle cx="175.100531" cy="13.772749" r="4" style="fill: #89cfa5; stroke-width: 0px;"/>
  <circle cx="170.128913" cy="67.548325" r="4" style="fill: #89cfa5; stroke-width: 0px;"/>
  <circle cx="175.243842" cy="31.898937" r="4" style="fill: #89cfa5; stroke-width: 0px;"/>
  <circle cx="180.031638" cy="5.28655" r="4" style="fill: #89cfa5; stroke-width: 0px;"/>
  <circle cx="170.313895" cy="85.707657" r="4" style="fill: #89cfa5; stroke-width: 0px;"/>
  <circle cx="180.191169" cy="23.480198" r="4" style="fill: #89cfa5; stroke-width: 0px;"/>
  <circle cx="175.063086" cy="59.113464" r="4" style="fill: #89cfa5; stroke-width: 0px;"/>
  <circle cx="169.929908" cy="94.746361" r="4" style="fill: #89cfa5; stroke-width: 0px;"/>
  <circle cx="180.400122" cy="41.741825" r="4" style="fill: #89cfa5; stroke-width: 0px;"/>
  <circle cx="185.088584" cy="15.151859" r="4" style="fill: #89cfa5; stroke-width: 0px;"/>
  <circle cx="179.933646" cy="50.799625" r="4" style="fill: #89cfa5; stroke-width: 0px;"/>
  <circle cx="175.268637" cy="77.394432" r="4" style="fill: #89cfa5; stroke-width: 0px;"/>
  <circle cx="189.943656" cy="6.895853" r="4" style="fill: #89cfa5; stroke-width: 0px;"/>
  <circle cx="185.300818" cy="33.500553" r="4" style="fill: #89cfa5; stroke-width: 0px;"/>
  <circle cx="180.137305" cy="69.201431" r="4" style="fill: #89cfa5; stroke-width: 0px;"/>
  <circle cx="190.150687" cy="25.329077" r="4" style="fill: #89cfa5; stroke-width: 0px;"/>
  <circle cx="194.958625" cy="17.212408" r="4" style="fill: #89cfa5; stroke-width: 0px;"/>
  <circle cx="184.941809" cy="61.091576" r="4" style="fill: #89cfa5; stroke-width: 0px;"/>
  <circle cx="190.414099" cy="43.9133" r="4" style="fill: #89cfa5; stroke-width: 0px;"/>
  <circle cx="199.731604" cy="9.139533" r="4" style="fill: #89cfa5; stroke-width: 0px;"/>
  <circle cx="174.919791" cy="104.982368" r="4" style="fill: #89cfa5; stroke-width: 0px;"/>
  <circle cx="189.697348" cy="53.041515" r="4" style="fill: #89cfa5; stroke-width: 0px;"/>
  <circle cx="180.431815" cy="87.831802" r="4" style="fill: #89cfa5; stroke-width: 0px;"/>
  <circle cx="195.200125" cy="35.890495" r="4" style="fill: #89cfa5; stroke-width: 0px;"/>
  <circle cx="199.94776" cy="27.903543" r="4" style="fill: #89cfa5; stroke-width: 0px;"/>
  <circle cx="179.633734" cy="96.983055" r="4" style="fill: #89cfa5; stroke-width: 0px;"/>
  <circle cx="185.196006" cy="79.862938" r="4" style="fill: #89cfa5; stroke-width: 0px;"/>
  <circle cx="204.664176" cy="19.944704" r="4" style="fill: #89cfa5; stroke-width: 0px;"/>
  <circle cx="209.354911" cy="12.008294" r="4" style="fill: #89cfa5; stroke-width: 0px;"/>
  <circle cx="189.906119" cy="71.934753" r="4" style="fill: #89cfa5; stroke-width: 0px;"/>
  <circle cx="200.206336" cy="46.931168" r="4" style="fill: #89cfa5; stroke-width: 0px;"/>
  <circle cx="194.577201" cy="64.034592" r="4" style="fill: #89cfa5; stroke-width: 0px;"/>
  <circle cx="204.880057" cy="39.053864" r="4" style="fill: #89cfa5; stroke-width: 0px;"/>
  <circle cx="199.219153" cy="56.154552" r="4" style="fill: #89cfa5; stroke-width: 0px;"/>
  <circle cx="209.529578" cy="31.189732" r="4" style="fill: #89cfa5; stroke-width: 0px;"/>
  <circle cx="214.159613" cy="23.335892" r="4" style="fill: #89cfa5; stroke-width: 0px;"/>
  <circle cx="218.773719" cy="15.49025" r="4" style="fill: #89cfa5; stroke-width: 0px;"/>
  <circle cx="190.16149" cy="91.327164" r="4" style="fill: #89cfa5; stroke-width: 0px;"/>
  <circle cx="194.749686" cy="83.519867" r="4" style="fill: #89cfa5; stroke-width: 0px;"/>
  <circle cx="209.705405" cy="50.773422" r="4" style="fill: #89cfa5; stroke-width: 0px;"/>
  <circle cx="214.280295" cy="42.970951" r="4" style="fill: #89cfa5; stroke-width: 0px;"/>
  <circle cx="199.319129" cy="75.715759" r="4" style="fill: #89cfa5; stroke-width: 0px;"/>
  <circle cx="218.844535" cy="35.16993" r="4" style="fill: #89cfa5; stroke-width: 0px;"/>
  <circle cx="184.350363" cy="108.458115" r="4" style="fill: #89cfa5; stroke-width: 0px;"/>
  <circle cx="203.875251" cy="67.913811" r="4" style="fill: #89cfa5; stroke-width: 0px;"/>
  <circle cx="223.400229" cy="27.370018" r="4" style="fill: #89cfa5; stroke-width: 0px;"/>
  <circle cx="227.948996" cy="19.570972" r="4" style="fill: #89cfa5; stroke-width: 0px;"/>
  <circle cx="208.42153" cy="60.113383" r="3.999999" style="fill: #89cfa5; stroke-width: 0px;"/>
  <circle cx="188.890601" cy="100.654266" r="4" style="fill: #89cfa5; stroke-width: 0px;"/>
  <circle cx="218.842063" cy="55.412048" r="4" style="fill: #89cfa5; stroke-width: 0px;"/>
  <circle cx="223.342246" cy="47.61734" r="4" style="fill: #89cfa5; stroke-width: 0px;"/>
  <circle cx="227.842429" cy="39.822693" r="4" style="fill: #89cfa5; stroke-width: 0px;"/>
  <circle cx="232.342582" cy="32.028103" r="4" style="fill: #89cfa5; stroke-width: 0px;"/>
  <circle cx="236.842719" cy="24.233551" r="4" style="fill: #89cfa5; stroke-width: 0px;"/>
  <circle cx="217.229499" cy="64.885765" r="4" style="fill: #89cfa5; stroke-width: 0px;"/>
  <circle cx="212.745246" cy="72.691376" r="4" style="fill: #89cfa5; stroke-width: 0px;"/>
  <circle cx="208.26435" cy="80.499474" r="4" style="fill: #89cfa5; stroke-width: 0px;"/>
  <circle cx="203.788001" cy="88.310982" r="4" style="fill: #89cfa5; stroke-width: 0px;"/>
  <circle cx="199.318045" cy="96.127327" r="4" style="fill: #89cfa5; stroke-width: 0px;"/>
  <circle cx="245.418051" cy="29.458668" r="4" style="fill: #89cfa5; stroke-width: 0px;"/>
  <circle cx="240.944587" cy="37.288227" r="4" style="fill: #89cfa5; stroke-width: 0px;"/>
  <circle cx="236.474784" cy="45.122955" r="4" style="fill: #89cfa5; stroke-width: 0px;"/>
  <circle cx="232.009452" cy="52.964077" r="4" style="fill: #89cfa5; stroke-width: 0px;"/>
  <circle cx="227.549674" cy="60.813228" r="3.999999" style="fill: #89cfa5; stroke-width: 0px;"/>
  <circle cx="197.489737" cy="105.676407" r="4" style="fill: #89cfa5; stroke-width: 0px;"/>
  <circle cx="193.023841" cy="113.536224" r="4" style="fill: #89cfa5; stroke-width: 0px;"/>
  <circle cx="225.571326" cy="70.432816" r="4" style="fill: #89cfa5; stroke-width: 0px;"/>
  <circle cx="221.100653" cy="78.320679" r="4" style="fill: #89cfa5; stroke-width: 0px;"/>
  <circle cx="253.639422" cy="35.224674" r="4" transform="translate(178.241021 279.946589) rotate(-80.782517)" style="fill: #89cfa5; stroke-width: 0px;"/>
  <circle cx="249.165763" cy="43.125648" r="4" style="fill: #89cfa5; stroke-width: 0px;"/>
  <circle cx="216.635337" cy="86.228981" r="4" style="fill: #89cfa5; stroke-width: 0px;"/>
  <circle cx="244.69509" cy="51.042156" r="4" style="fill: #89cfa5; stroke-width: 0px;"/>
  <circle cx="212.176902" cy="94.16523" r="4" style="fill: #89cfa5; stroke-width: 0px;"/>
  <circle cx="240.227896" cy="58.977837" r="4" style="fill: #89cfa5; stroke-width: 0px;"/>
  <circle cx="235.764762" cy="66.937576" r="4" style="fill: #89cfa5; stroke-width: 0px;"/>
  <circle cx="207.7275" cy="102.14109" r="4" style="fill: #89cfa5; stroke-width: 0px;"/>
  <circle cx="261.472815" cy="41.507671" r="4" style="fill: #89cfa5; stroke-width: 0px;"/>
  <circle cx="256.967444" cy="49.512905" r="4" style="fill: #89cfa5; stroke-width: 0px;"/>
  <circle cx="233.379065" cy="76.709366" r="4" style="fill: #89cfa5; stroke-width: 0px;"/>
  <circle cx="252.459052" cy="57.548405" r="4" style="fill: #89cfa5; stroke-width: 0px;"/>
  <circle cx="228.859977" cy="84.746803" r="4" style="fill: #89cfa5; stroke-width: 0px;"/>
  <circle cx="247.946341" cy="65.621147" r="4" style="fill: #89cfa5; stroke-width: 0px;"/>
  <circle cx="205.235404" cy="111.93515" r="4" style="fill: #89cfa5; stroke-width: 0px;"/>
  <circle cx="224.332511" cy="92.836121" r="4" style="fill: #89cfa5; stroke-width: 0px;"/>
  <circle cx="243.42742" cy="73.740433" r="4" style="fill: #89cfa5; stroke-width: 0px;"/>
  <circle cx="268.885749" cy="48.281631" r="4" style="fill: #89cfa5; stroke-width: 0px;"/>
  <circle cx="264.312934" cy="56.419945" r="4" style="fill: #89cfa5; stroke-width: 0px;"/>
  <circle cx="219.791983" cy="100.995781" r="4" style="fill: #89cfa5; stroke-width: 0px;"/>
  <circle cx="200.670554" cy="120.058815" r="4" style="fill: #89cfa5; stroke-width: 0px;"/>
  <circle cx="259.724829" cy="64.606636" r="4" style="fill: #89cfa5; stroke-width: 0px;"/>
  <circle cx="240.589133" cy="83.664284" r="4" style="fill: #89cfa5; stroke-width: 0px;"/>
  <circle cx="215.230048" cy="109.254166" r="4" style="fill: #89cfa5; stroke-width: 0px;"/>
  <circle cx="255.116706" cy="72.8526" r="4" style="fill: #89cfa5; stroke-width: 0px;"/>
  <circle cx="275.84748" cy="55.518486" r="4" style="fill: #89cfa5; stroke-width: 0px;"/>
  <circle cx="235.947486" cy="91.907059" r="4" style="fill: #89cfa5; stroke-width: 0px;"/>
  <circle cx="250.481787" cy="81.172203" r="4" style="fill: #89cfa5; stroke-width: 0px;"/>
  <circle cx="271.16767" cy="63.81427" r="4" style="fill: #89cfa5; stroke-width: 0px;"/>
  <circle cx="231.264304" cy="100.242271" r="4" style="fill: #89cfa5; stroke-width: 0px;"/>
  <circle cx="266.453315" cy="72.178833" r="4" style="fill: #5e4fa2; stroke-width: 0px;"/>
  <circle cx="282.3292" cy="63.188248" r="4" style="fill: #5e4fa2; stroke-width: 0px;"/>
  <circle cx="247.142798" cy="91.240929" r="4" style="fill: #5e4fa2; stroke-width: 0px;"/>
  <circle cx="211.95127" cy="119.28801" r="4" style="fill: #5e4fa2; stroke-width: 0px;"/>
  <circle cx="261.694281" cy="80.627136" r="4" style="fill: #5e4fa2; stroke-width: 0px;"/>
  <circle cx="226.520316" cy="108.70134" r="4" style="fill: #5e4fa2; stroke-width: 0px;"/>
  <circle cx="277.499396" cy="71.661095" r="4" style="fill: #5e4fa2; stroke-width: 0px;"/>
  <circle cx="242.294043" cy="99.731583" r="4" style="fill: #5e4fa2; stroke-width: 0px;"/>
  <circle cx="256.87641" cy="89.178696" r="4" style="fill: #5e4fa2; stroke-width: 0px;"/>
  <circle cx="272.608191" cy="80.22419" r="4" style="fill: #5e4fa2; stroke-width: 0px;"/>
  <circle cx="221.683142" cy="117.331406" r="4" style="fill: #5e4fa2; stroke-width: 0px;"/>
  <circle cx="288.304053" cy="71.259132" r="4" style="fill: #5e4fa2; stroke-width: 0px;"/>
  <circle cx="207.052756" cy="127.823082" r="4" style="fill: #5e4fa2; stroke-width: 0px;"/>
  <circle cx="237.348227" cy="108.359329" r="4" style="fill: #5e4fa2; stroke-width: 0px;"/>
  <circle cx="267.638098" cy="88.896294" r="4" style="fill: #5e4fa2; stroke-width: 0px;"/>
  <circle cx="252.986651" cy="99.377586" r="4" transform="translate(114.368279 333.178992) rotate(-80.782517)" style="fill: #5e4fa2; stroke-width: 0px;"/>
  <circle cx="283.278327" cy="79.923508" r="4" style="fill: #5e4fa2; stroke-width: 0px;"/>
  <circle cx="262.564673" cy="97.701538" r="4" style="fill: #5e4fa2; stroke-width: 0px;"/>
  <circle cx="278.156348" cy="88.699356" r="4" style="fill: #5e4fa2; stroke-width: 0px;"/>
  <circle cx="293.74726" cy="79.697701" r="4" style="fill: #5e4fa2; stroke-width: 0px;"/>
  <circle cx="232.262091" cy="117.167625" r="4" style="fill: #5e4fa2; stroke-width: 0px;"/>
  <circle cx="247.837744" cy="108.144035" r="4" style="fill: #5e4fa2; stroke-width: 0px;"/>
  <circle cx="217.484412" cy="127.567589" r="4" style="fill: #5e4fa2; stroke-width: 0px;"/>
  <circle cx="288.47724" cy="88.562622" r="4" style="fill: #5e4fa2; stroke-width: 0px;"/>
  <circle cx="272.911109" cy="97.608551" r="4" style="fill: #5e4fa2; stroke-width: 0px;"/>
  <circle cx="258.073127" cy="108.007973" r="4" style="fill: #5e4fa2; stroke-width: 0px;"/>
  <circle cx="242.511908" cy="117.090714" r="4" style="fill: #5e4fa2; stroke-width: 0px;"/>
  <circle cx="298.636267" cy="88.468987" r="4" style="fill: #5e4fa2; stroke-width: 0px;"/>
  <circle cx="283.067847" cy="97.55867" r="4" style="fill: #5e4fa2; stroke-width: 0px;"/>
  <circle cx="226.964148" cy="126.219322" r="4" style="fill: #5e4fa2; stroke-width: 0px;"/>
  <circle cx="267.505133" cy="106.678589" r="4" style="fill: #5e4fa2; stroke-width: 0px;"/>
  <circle cx="293.071753" cy="97.537811" r="4" style="fill: #5e4fa2; stroke-width: 0px;"/>
  <circle cx="252.524493" cy="117.062355" r="4" transform="translate(96.523738 347.574782) rotate(-80.782517)" style="fill: #5e4fa2; stroke-width: 0px;"/>
  <circle cx="277.480445" cy="106.709602" r="4" style="fill: #5e4fa2; stroke-width: 0px;"/>
  <circle cx="211.972022" cy="136.587624" r="4" style="fill: #5e4fa2; stroke-width: 0px;"/>
  <circle cx="236.932151" cy="126.269081" r="4" style="fill: #5e4fa2; stroke-width: 0px;"/>
  <circle cx="302.950843" cy="97.536652" r="4" style="fill: #5e4fa2; stroke-width: 0px;"/>
  <circle cx="262.360816" cy="117.061806" r="4" style="fill: #5e4fa2; stroke-width: 0px;"/>
  <circle cx="287.31626" cy="106.754395" r="4" style="fill: #5e4fa2; stroke-width: 0px;"/>
  <circle cx="271.661719" cy="116.04438" r="4" style="fill: #5e4fa2; stroke-width: 0px;"/>
  <circle cx="246.693915" cy="126.332558" r="4" style="fill: #5e4fa2; stroke-width: 0px;"/>
  <circle cx="297.040168" cy="106.806839" r="4" style="fill: #5e4fa2; stroke-width: 0px;"/>
  <circle cx="221.708899" cy="136.585411" r="4" style="fill: #5e4fa2; stroke-width: 0px;"/>
  <circle cx="306.673102" cy="106.863113" r="4" style="fill: #5e4fa2; stroke-width: 0px;"/>
  <circle cx="281.317664" cy="116.142731" r="4" style="fill: #5e4fa2; stroke-width: 0px;"/>
  <circle cx="256.30857" cy="126.399529" r="4" style="fill: #5e4fa2; stroke-width: 0px;"/>
  <circle cx="230.972739" cy="135.749031" r="4" style="fill: #5e4fa2; stroke-width: 0px;"/>
  <circle cx="290.878669" cy="116.236984" r="4" style="fill: #5e4fa2; stroke-width: 0px;"/>
  <circle cx="265.814734" cy="126.465334" r="4.000003" style="fill: #5e4fa2; stroke-width: 0px;"/>
  <circle cx="300.363898" cy="116.326096" r="4" style="fill: #5e4fa2; stroke-width: 0px;"/>
  <circle cx="240.461264" cy="135.870705" r="4" style="fill: #5e4fa2; stroke-width: 0px;"/>
  <circle cx="275.004126" cy="125.730635" r="3.999997" style="fill: #5e4fa2; stroke-width: 0px;"/>
  <circle cx="309.787574" cy="116.409737" r="4" style="fill: #5e4fa2; stroke-width: 0px;"/>
  <circle cx="284.39878" cy="125.849159" r="4" style="fill: #5e4fa2; stroke-width: 0px;"/>
  <circle cx="249.844489" cy="135.974892" r="4" style="fill: #5e4fa2; stroke-width: 0px;"/>
  <circle cx="293.735938" cy="125.955345" r="4" style="fill: #5e4fa2; stroke-width: 0px;"/>
  <circle cx="215.275397" cy="146.079948" r="4" style="fill: #5e4fa2; stroke-width: 0px;"/>
  <circle cx="259.153052" cy="136.064461" r="4" style="fill: #5e4fa2; stroke-width: 0px;"/>
  <circle cx="303.027228" cy="126.050814" r="4.000003" style="fill: #5e4fa2; stroke-width: 0px;"/>
  <circle cx="312.281409" cy="126.136955" r="4" style="fill: #5e4fa2; stroke-width: 0px;"/>
  <circle cx="268.406775" cy="136.14196" r="4" style="fill: #5e4fa2; stroke-width: 0px;"/>
  <circle cx="224.528525" cy="146.136162" r="4" style="fill: #5e4fa2; stroke-width: 0px;"/>
  <circle cx="277.508002" cy="135.666725" r="4" style="fill: #5e4fa2; stroke-width: 0px;"/>
  <circle cx="233.632727" cy="145.739464" r="4" style="fill: #5e4fa2; stroke-width: 0px;"/>
  <circle cx="286.704657" cy="135.768379" r="4" style="fill: #5e4fa2; stroke-width: 0px;"/>
  <circle cx="295.872596" cy="135.857109" r="4" style="fill: #5e4fa2; stroke-width: 0px;"/>
  <circle cx="242.797065" cy="145.830132" r="4" style="fill: #5e4fa2; stroke-width: 0px;"/>
  <circle cx="305.017676" cy="135.935219" r="4" style="fill: #5e4fa2; stroke-width: 0px;"/>
  <circle cx="314.144263" cy="136.004463" r="4" style="fill: #5e4fa2; stroke-width: 0px;"/>
  <circle cx="251.926139" cy="145.903008" r="4" style="fill: #5e4fa2; stroke-width: 0px;"/>
  <circle cx="261.030188" cy="145.962868" r="4" style="fill: #5e4fa2; stroke-width: 0px;"/>
  <circle cx="270.115851" cy="146.012886" r="4" style="fill: #5e4fa2; stroke-width: 0px;"/>
  <circle cx="279.155097" cy="145.78019" r="4" style="fill: #5e4fa2; stroke-width: 0px;"/>
  <circle cx="288.220893" cy="145.838585" r="4" style="fill: #5e4fa2; stroke-width: 0px;"/>
  <circle cx="297.277167" cy="145.888939" r="4" style="fill: #5e4fa2; stroke-width: 0px;"/>
  <circle cx="306.325843" cy="145.932808" r="4" style="fill: #5e4fa2; stroke-width: 0px;"/>
  <circle cx="315.368384" cy="145.971382" r="4" style="fill: #5e4fa2; stroke-width: 0px;"/>
  <circle cx="216.860175" cy="156.004906" r="4" style="fill: #5e4fa2; stroke-width: 0px;"/>
  <circle cx="225.879126" cy="156.002419" r="4" style="fill: #5e4fa2; stroke-width: 0px;"/>
  <circle cx="234.893561" cy="156.000771" r="4" style="fill: #5e4fa2; stroke-width: 0px;"/>
  <circle cx="243.904929" cy="155.999626" r="4" style="fill: #5e4fa2; stroke-width: 0px;"/>
  <circle cx="252.914099" cy="155.998787" r="4" style="fill: #5e4fa2; stroke-width: 0px;"/>
  <circle cx="261.921668" cy="155.998161" r="4" style="fill: #5e4fa2; stroke-width: 0px;"/>
  <circle cx="270.928015" cy="155.997688" r="4" style="fill: #5e4fa2; stroke-width: 0px;"/>
  <circle cx="279.933387" cy="155.997322" r="4" style="fill: #5e4fa2; stroke-width: 0px;"/>
  <circle cx="288.938025" cy="155.997017" r="4" style="fill: #5e4fa2; stroke-width: 0px;"/>
  <circle cx="297.942084" cy="155.996773" r="4" style="fill: #5e4fa2; stroke-width: 0px;"/>
  <circle cx="306.945624" cy="155.996574" r="4" style="fill: #5e4fa2; stroke-width: 0px;"/>
  <circle cx="315.948737" cy="155.996407" r="4" style="fill: #5e4fa2; stroke-width: 0px;"/>
</svg>